<mxfile host="app.diagrams.net" modified="2023-08-10T03:40:19.267Z" agent="Mozilla/5.0 (Macintosh; Intel Mac OS X 10_15_7) AppleWebKit/537.36 (KHTML, like Gecko) Chrome/114.0.0.0 Safari/537.36" etag="zccaLKVYA50PC72ctXKq" version="21.3.8" type="github">
  <diagram name="第 1 页" id="uE3afGnhAG_w9gXQY3Z8">
    <mxGraphModel dx="2137" dy="433" grid="0" gridSize="10" guides="1" tooltips="1" connect="1" arrows="1" fold="1" page="0" pageScale="1" pageWidth="827" pageHeight="1169" background="none" math="0" shadow="0">
      <root>
        <mxCell id="0" />
        <mxCell id="1" parent="0" />
        <mxCell id="i7JAw242GCvu3cT-5Jvu-1" value="租户管理" style="text;html=1;strokeColor=none;fillColor=none;align=center;verticalAlign=middle;whiteSpace=wrap;rounded=0;" vertex="1" parent="1">
          <mxGeometry x="-264" y="70" width="60" height="30" as="geometry" />
        </mxCell>
        <mxCell id="i7JAw242GCvu3cT-5Jvu-2" value="superadmin" style="ellipse;whiteSpace=wrap;html=1;" vertex="1" parent="1">
          <mxGeometry x="-109" y="126" width="120" height="80" as="geometry" />
        </mxCell>
        <mxCell id="i7JAw242GCvu3cT-5Jvu-3" value="tenant&amp;nbsp;" style="ellipse;whiteSpace=wrap;html=1;" vertex="1" parent="1">
          <mxGeometry x="-467" y="278" width="120" height="80" as="geometry" />
        </mxCell>
        <mxCell id="i7JAw242GCvu3cT-5Jvu-4" value="tenant&amp;nbsp;" style="ellipse;whiteSpace=wrap;html=1;" vertex="1" parent="1">
          <mxGeometry x="-104" y="278" width="120" height="80" as="geometry" />
        </mxCell>
        <mxCell id="i7JAw242GCvu3cT-5Jvu-5" value="tenant （= old sysadmin&lt;br&gt;）" style="ellipse;whiteSpace=wrap;html=1;" vertex="1" parent="1">
          <mxGeometry x="262" y="281" width="120" height="80" as="geometry" />
        </mxCell>
        <mxCell id="i7JAw242GCvu3cT-5Jvu-10" value="admin" style="ellipse;whiteSpace=wrap;html=1;" vertex="1" parent="1">
          <mxGeometry x="-738" y="485" width="120" height="80" as="geometry" />
        </mxCell>
        <mxCell id="i7JAw242GCvu3cT-5Jvu-11" value="admin" style="ellipse;whiteSpace=wrap;html=1;" vertex="1" parent="1">
          <mxGeometry x="-482" y="482" width="120" height="80" as="geometry" />
        </mxCell>
        <mxCell id="i7JAw242GCvu3cT-5Jvu-12" value="admin" style="ellipse;whiteSpace=wrap;html=1;" vertex="1" parent="1">
          <mxGeometry x="-259" y="485" width="120" height="80" as="geometry" />
        </mxCell>
        <mxCell id="i7JAw242GCvu3cT-5Jvu-14" value="person" style="ellipse;whiteSpace=wrap;html=1;" vertex="1" parent="1">
          <mxGeometry x="-910" y="666" width="120" height="80" as="geometry" />
        </mxCell>
        <mxCell id="i7JAw242GCvu3cT-5Jvu-16" value="person" style="ellipse;whiteSpace=wrap;html=1;" vertex="1" parent="1">
          <mxGeometry x="-747" y="666" width="120" height="80" as="geometry" />
        </mxCell>
        <mxCell id="i7JAw242GCvu3cT-5Jvu-17" value="person" style="ellipse;whiteSpace=wrap;html=1;" vertex="1" parent="1">
          <mxGeometry x="-590" y="675" width="120" height="80" as="geometry" />
        </mxCell>
        <mxCell id="i7JAw242GCvu3cT-5Jvu-20" value="" style="endArrow=classic;html=1;rounded=0;entryX=0.9;entryY=0.275;entryDx=0;entryDy=0;entryPerimeter=0;" edge="1" parent="1" target="i7JAw242GCvu3cT-5Jvu-3">
          <mxGeometry x="0.0016" width="50" height="50" relative="1" as="geometry">
            <mxPoint x="-109" y="181" as="sourcePoint" />
            <mxPoint x="-208" y="276" as="targetPoint" />
            <mxPoint as="offset" />
          </mxGeometry>
        </mxCell>
        <mxCell id="i7JAw242GCvu3cT-5Jvu-28" value="平台控制业务模块定义的权限，变更后存量、增量数据均同步更新" style="edgeLabel;html=1;align=center;verticalAlign=middle;resizable=0;points=[];" vertex="1" connectable="0" parent="i7JAw242GCvu3cT-5Jvu-20">
          <mxGeometry x="0.2534" y="2" relative="1" as="geometry">
            <mxPoint as="offset" />
          </mxGeometry>
        </mxCell>
        <mxCell id="i7JAw242GCvu3cT-5Jvu-29" value="平台初始化权限为tenant默认权限" style="edgeLabel;html=1;align=center;verticalAlign=middle;resizable=0;points=[];" vertex="1" connectable="0" parent="i7JAw242GCvu3cT-5Jvu-20">
          <mxGeometry x="-0.3195" y="1" relative="1" as="geometry">
            <mxPoint as="offset" />
          </mxGeometry>
        </mxCell>
        <mxCell id="i7JAw242GCvu3cT-5Jvu-21" value="" style="endArrow=classic;html=1;rounded=0;entryX=0.5;entryY=0;entryDx=0;entryDy=0;" edge="1" parent="1" target="i7JAw242GCvu3cT-5Jvu-10">
          <mxGeometry width="50" height="50" relative="1" as="geometry">
            <mxPoint x="-463" y="327" as="sourcePoint" />
            <mxPoint x="-699" y="446" as="targetPoint" />
          </mxGeometry>
        </mxCell>
        <mxCell id="i7JAw242GCvu3cT-5Jvu-22" value="" style="endArrow=classic;html=1;rounded=0;" edge="1" parent="1">
          <mxGeometry width="50" height="50" relative="1" as="geometry">
            <mxPoint x="-681" y="562" as="sourcePoint" />
            <mxPoint x="-831" y="674" as="targetPoint" />
          </mxGeometry>
        </mxCell>
        <mxCell id="i7JAw242GCvu3cT-5Jvu-26" value="角色定义&amp;nbsp; &amp;nbsp;人员权限定义 均在admin层进行控制" style="edgeLabel;html=1;align=center;verticalAlign=middle;resizable=0;points=[];" vertex="1" connectable="0" parent="i7JAw242GCvu3cT-5Jvu-22">
          <mxGeometry x="-0.0362" relative="1" as="geometry">
            <mxPoint as="offset" />
          </mxGeometry>
        </mxCell>
      </root>
    </mxGraphModel>
  </diagram>
</mxfile>
